<svg xmlns="http://www.w3.org/2000/svg" xmlns:xlink="http://www.w3.org/1999/xlink" width="500" zoomAndPan="magnify" viewBox="0 0 375 374.999991" height="500" preserveAspectRatio="xMidYMid meet" version="1.0"><defs><filter x="0%" y="0%" width="100%" height="100%" id="1cce77cbaa"><feColorMatrix values="0 0 0 0 1 0 0 0 0 1 0 0 0 0 1 0 0 0 1 0" color-interpolation-filters="sRGB"/></filter><clipPath id="80e42ff063"><path d="M 118.496094 118.496094 L 256.503906 118.496094 L 256.503906 256.503906 L 118.496094 256.503906 Z M 118.496094 118.496094 " clip-rule="nonzero"/></clipPath><clipPath id="3c3cdc24d8"><path d="M 187.5 118.496094 C 149.390625 118.496094 118.496094 149.390625 118.496094 187.5 C 118.496094 225.609375 149.390625 256.503906 187.5 256.503906 C 225.609375 256.503906 256.503906 225.609375 256.503906 187.5 C 256.503906 149.390625 225.609375 118.496094 187.5 118.496094 Z M 187.5 118.496094 " clip-rule="nonzero"/></clipPath><mask id="ddd93519fb"><g filter="url(#1cce77cbaa)"><rect x="-37.5" width="450" fill="#000000" y="-37.499999" height="449.999989" fill-opacity="0.55"/></g></mask><clipPath id="e3f9c8bb29"><path d="M 0.75 0.75 L 122.25 0.75 L 122.25 122.25 L 0.75 122.25 Z M 0.75 0.75 " clip-rule="nonzero"/></clipPath><clipPath id="9bfa9f9f06"><path d="M 61.5 0.75 C 27.949219 0.75 0.75 27.949219 0.75 61.5 C 0.75 95.050781 27.949219 122.25 61.5 122.25 C 95.050781 122.25 122.25 95.050781 122.25 61.5 C 122.25 27.949219 95.050781 0.75 61.5 0.75 Z M 61.5 0.75 " clip-rule="nonzero"/></clipPath><clipPath id="3367a7d81d"><rect x="0" width="123" y="0" height="123"/></clipPath><clipPath id="a8365b10ce"><path d="M 156.84375 138.15625 L 218.34375 138.15625 L 218.34375 237 L 156.84375 237 Z M 156.84375 138.15625 " clip-rule="nonzero"/></clipPath></defs><rect x="-37.5" width="450" fill="#ffffff" y="-37.499999" height="449.999989" fill-opacity="1"/><rect x="-37.5" width="450" fill="#ffffff" y="-37.499999" height="449.999989" fill-opacity="1"/><g clip-path="url(#80e42ff063)"><g clip-path="url(#3c3cdc24d8)"><path fill="#0097b2" d="M 118.496094 118.496094 L 256.503906 118.496094 L 256.503906 256.503906 L 118.496094 256.503906 Z M 118.496094 118.496094 " fill-opacity="1" fill-rule="nonzero"/></g></g><g mask="url(#ddd93519fb)"><g transform="matrix(1, 0, 0, 1, 126, 126)"><g clip-path="url(#3367a7d81d)"><g clip-path="url(#e3f9c8bb29)"><g clip-path="url(#9bfa9f9f06)"><path fill="#000000" d="M 0.75 0.75 L 122.25 0.75 L 122.25 122.25 L 0.75 122.25 Z M 0.75 0.75 " fill-opacity="1" fill-rule="nonzero"/></g></g></g></g></g><g clip-path="url(#a8365b10ce)"><path fill="#ffffff" d="M 193.738281 220.527344 L 181.527344 220.527344 L 181.527344 229.0625 C 175.125 229.480469 168.714844 230.542969 162.292969 232.261719 L 162.292969 236.648438 L 212.6875 236.648438 L 212.6875 232.261719 C 206.378906 230.550781 200.0625 229.488281 193.738281 229.070312 Z M 181.40625 188.167969 C 182.5 188.167969 183.386719 189.054688 183.386719 190.148438 C 183.386719 191.246094 182.5 192.132812 181.40625 192.132812 L 166.152344 192.132812 C 168.332031 201.914062 177.054688 209.222656 187.492188 209.222656 C 197.929688 209.222656 206.652344 201.914062 208.832031 192.132812 L 193.578125 192.132812 C 192.488281 192.132812 191.597656 191.246094 191.597656 190.148438 C 191.597656 189.054688 192.484375 188.167969 193.578125 188.167969 L 209.339844 188.167969 C 209.351562 187.894531 209.363281 187.628906 209.363281 187.355469 L 209.363281 183.78125 L 193.578125 183.78125 C 192.488281 183.78125 191.597656 182.894531 191.597656 181.796875 C 191.597656 180.703125 192.484375 179.816406 193.578125 179.816406 L 209.363281 179.816406 L 209.363281 175.429688 L 193.578125 175.429688 C 192.488281 175.429688 191.597656 174.542969 191.597656 173.445312 C 191.597656 172.351562 192.484375 171.464844 193.578125 171.464844 L 209.363281 171.464844 L 209.363281 167.078125 L 193.578125 167.078125 C 192.488281 167.078125 191.597656 166.191406 191.597656 165.09375 C 191.597656 164 192.484375 163.113281 193.578125 163.113281 L 209.363281 163.113281 L 209.363281 160.210938 C 209.363281 159.710938 209.339844 159.214844 209.308594 158.722656 L 193.578125 158.722656 C 192.488281 158.722656 191.597656 157.835938 191.597656 156.742188 C 191.597656 155.644531 192.484375 154.757812 193.578125 154.757812 L 208.679688 154.757812 C 206.253906 145.320312 197.6875 138.34375 187.488281 138.34375 C 177.292969 138.34375 168.726562 145.320312 166.304688 154.761719 L 181.40625 154.761719 C 182.5 154.761719 183.386719 155.648438 183.386719 156.742188 C 183.386719 157.839844 182.5 158.726562 181.40625 158.726562 L 165.679688 158.726562 C 165.644531 159.21875 165.621094 159.710938 165.621094 160.210938 L 165.621094 163.117188 L 181.40625 163.117188 C 182.5 163.117188 183.386719 164 183.386719 165.097656 C 183.386719 166.195312 182.5 167.078125 181.40625 167.078125 L 165.621094 167.078125 L 165.621094 171.46875 L 181.40625 171.46875 C 182.5 171.46875 183.386719 172.351562 183.386719 173.449219 C 183.386719 174.546875 182.5 175.429688 181.40625 175.429688 L 165.621094 175.429688 L 165.621094 179.820312 L 181.40625 179.820312 C 182.5 179.820312 183.386719 180.703125 183.386719 181.800781 C 183.386719 182.898438 182.5 183.78125 181.40625 183.78125 L 165.621094 183.78125 L 165.621094 187.355469 C 165.621094 187.628906 165.632812 187.898438 165.644531 188.171875 L 181.40625 188.171875 Z M 213.75 182.578125 L 213.75 187.355469 C 213.75 201.835938 201.972656 213.613281 187.492188 213.613281 C 173.011719 213.613281 161.230469 201.832031 161.230469 187.355469 L 161.230469 182.574219 L 156.84375 182.574219 L 156.84375 187.355469 C 156.84375 204.25 170.59375 218 187.488281 218 C 204.386719 218 218.136719 204.25 218.136719 187.355469 L 218.136719 182.574219 L 213.746094 182.574219 Z M 213.75 182.578125 " fill-opacity="1" fill-rule="nonzero"/></g></svg>