<svg xmlns="http://www.w3.org/2000/svg" xmlns:xlink="http://www.w3.org/1999/xlink" width="500" zoomAndPan="magnify" viewBox="0 0 375 374.999991" height="500" preserveAspectRatio="xMidYMid meet" version="1.0"><defs><filter x="0%" y="0%" width="100%" height="100%" id="bb4ff3d5e7"><feColorMatrix values="0 0 0 0 1 0 0 0 0 1 0 0 0 0 1 0 0 0 1 0" color-interpolation-filters="sRGB"/></filter><clipPath id="0bb51f9460"><path d="M 77.675781 0 L 173.601562 0 L 173.601562 175.601562 L 77.675781 175.601562 Z M 77.675781 0 " clip-rule="nonzero"/></clipPath><mask id="3750b4bc83"><g filter="url(#bb4ff3d5e7)"><rect x="-37.5" width="450" fill="#000000" y="-37.499999" height="449.999989" fill-opacity="0.55"/></g></mask><clipPath id="1c63e9fc0d"><path d="M 0.675781 63 L 96.675781 63 L 96.675781 142.421875 L 0.675781 142.421875 Z M 0.675781 63 " clip-rule="nonzero"/></clipPath><clipPath id="58ce909be8"><rect x="0" width="97" y="0" height="144"/></clipPath><mask id="de661202c8"><g filter="url(#bb4ff3d5e7)"><rect x="-37.5" width="450" fill="#000000" y="-37.499999" height="449.999989" fill-opacity="0.7"/></g></mask><clipPath id="30621f0e17"><path d="M 0.121094 0.6875 L 77.082031 0.6875 L 77.082031 88.4375 L 0.121094 88.4375 Z M 0.121094 0.6875 " clip-rule="nonzero"/></clipPath><clipPath id="780b1b31f2"><rect x="0" width="78" y="0" height="89"/></clipPath><clipPath id="aa4e067a87"><path d="M 77.675781 199.398438 L 173.601562 199.398438 L 173.601562 375 L 77.675781 375 Z M 77.675781 199.398438 " clip-rule="nonzero"/></clipPath><mask id="f00db9ec52"><g filter="url(#bb4ff3d5e7)"><rect x="-37.5" width="450" fill="#000000" y="-37.499999" height="449.999989" fill-opacity="0.55"/></g></mask><clipPath id="690d92abc2"><path d="M 19 0.0664062 L 78 0.0664062 L 78 59 L 19 59 Z M 19 0.0664062 " clip-rule="nonzero"/></clipPath><clipPath id="1b859514f8"><path d="M 0.675781 62 L 96.675781 62 L 96.675781 141.816406 L 0.675781 141.816406 Z M 0.675781 62 " clip-rule="nonzero"/></clipPath><clipPath id="6e9222c6df"><rect x="0" width="97" y="0" height="142"/></clipPath><clipPath id="4fbb4f1a71"><path d="M 201.398438 199.398438 L 297.324219 199.398438 L 297.324219 375 L 201.398438 375 Z M 201.398438 199.398438 " clip-rule="nonzero"/></clipPath><mask id="40e1cd1b0a"><g filter="url(#bb4ff3d5e7)"><rect x="-37.5" width="450" fill="#000000" y="-37.499999" height="449.999989" fill-opacity="0.55"/></g></mask><clipPath id="93ca0a7aed"><path d="M 19 0.0664062 L 78 0.0664062 L 78 59 L 19 59 Z M 19 0.0664062 " clip-rule="nonzero"/></clipPath><clipPath id="951a07ccf7"><path d="M 0.398438 62 L 96.398438 62 L 96.398438 141.816406 L 0.398438 141.816406 Z M 0.398438 62 " clip-rule="nonzero"/></clipPath><clipPath id="f37f59ab35"><rect x="0" width="97" y="0" height="142"/></clipPath><clipPath id="4f5800f921"><path d="M 201.398438 0 L 297.324219 0 L 297.324219 175.601562 L 201.398438 175.601562 Z M 201.398438 0 " clip-rule="nonzero"/></clipPath><mask id="4fe82bfd85"><g filter="url(#bb4ff3d5e7)"><rect x="-37.5" width="450" fill="#000000" y="-37.499999" height="449.999989" fill-opacity="0.55"/></g></mask><clipPath id="cb977d0621"><path d="M 0.398438 63 L 96.398438 63 L 96.398438 142.421875 L 0.398438 142.421875 Z M 0.398438 63 " clip-rule="nonzero"/></clipPath><clipPath id="7de9a6b60a"><rect x="0" width="97" y="0" height="144"/></clipPath><mask id="e5c12ee49b"><g filter="url(#bb4ff3d5e7)"><rect x="-37.5" width="450" fill="#000000" y="-37.499999" height="449.999989" fill-opacity="0.7"/></g></mask><clipPath id="074a50687e"><path d="M 1 1 L 97 1 L 97 63.71875 L 1 63.71875 Z M 1 1 " clip-rule="nonzero"/></clipPath><clipPath id="9063671219"><rect x="0" width="97" y="0" height="64"/></clipPath><mask id="76621e89e7"><g filter="url(#bb4ff3d5e7)"><rect x="-37.5" width="450" fill="#000000" y="-37.499999" height="449.999989" fill-opacity="0.7"/></g></mask><clipPath id="17b1032d51"><path d="M 1 1 L 58.71875 1 L 58.71875 89 L 1 89 Z M 1 1 " clip-rule="nonzero"/></clipPath><clipPath id="119ce1bdd6"><rect x="0" width="59" y="0" height="90"/></clipPath><mask id="9caaf4d9b0"><g filter="url(#bb4ff3d5e7)"><rect x="-37.5" width="450" fill="#000000" y="-37.499999" height="449.999989" fill-opacity="0.7"/></g></mask><clipPath id="7be9dba855"><path d="M 0.316406 39 L 59 39 L 59 90.285156 L 0.316406 90.285156 Z M 0.316406 39 " clip-rule="nonzero"/></clipPath><clipPath id="3135c01dce"><path d="M 11 0.285156 L 88 0.285156 L 88 82 L 11 82 Z M 11 0.285156 " clip-rule="nonzero"/></clipPath><clipPath id="8a330db046"><rect x="0" width="89" y="0" height="91"/></clipPath><clipPath id="48c444b1b8"><path d="M 117.515625 127.410156 L 249.363281 127.410156 L 249.363281 259.257812 L 117.515625 259.257812 Z M 117.515625 127.410156 " clip-rule="nonzero"/></clipPath><clipPath id="104ecc7e92"><path d="M 183.4375 127.410156 C 147.03125 127.410156 117.515625 156.925781 117.515625 193.332031 C 117.515625 229.742188 147.03125 259.257812 183.4375 259.257812 C 219.847656 259.257812 249.363281 229.742188 249.363281 193.332031 C 249.363281 156.925781 219.847656 127.410156 183.4375 127.410156 Z M 183.4375 127.410156 " clip-rule="nonzero"/></clipPath><mask id="cd23bc2c67"><g filter="url(#bb4ff3d5e7)"><rect x="-37.5" width="450" fill="#000000" y="-37.499999" height="449.999989" fill-opacity="0.55"/></g></mask><clipPath id="14584d2a3b"><path d="M 0.636719 0.53125 L 116.238281 0.53125 L 116.238281 116.136719 L 0.636719 116.136719 Z M 0.636719 0.53125 " clip-rule="nonzero"/></clipPath><clipPath id="7256f79c27"><path d="M 58.4375 0.53125 C 26.515625 0.53125 0.636719 26.410156 0.636719 58.332031 C 0.636719 90.257812 26.515625 116.136719 58.4375 116.136719 C 90.363281 116.136719 116.238281 90.257812 116.238281 58.332031 C 116.238281 26.410156 90.363281 0.53125 58.4375 0.53125 Z M 58.4375 0.53125 " clip-rule="nonzero"/></clipPath><clipPath id="8b17550461"><rect x="0" width="117" y="0" height="117"/></clipPath><clipPath id="012a68cf33"><path d="M 188 187 L 232.382812 187 L 232.382812 242.78125 L 188 242.78125 Z M 188 187 " clip-rule="nonzero"/></clipPath><clipPath id="b0b4da11b3"><path d="M 139 187 L 184 187 L 184 242.78125 L 139 242.78125 Z M 139 187 " clip-rule="nonzero"/></clipPath></defs><rect x="-37.5" width="450" fill="#ffffff" y="-37.499999" height="449.999989" fill-opacity="1"/><rect x="-37.5" width="450" fill="#ffffff" y="-37.499999" height="449.999989" fill-opacity="1"/><g clip-path="url(#0bb51f9460)"><path fill="#0097b2" d="M 77.675781 0 L 173.601562 0 L 173.601562 175.742188 L 77.675781 175.742188 Z M 77.675781 0 " fill-opacity="1" fill-rule="nonzero"/></g><g mask="url(#3750b4bc83)"><g transform="matrix(1, 0, 0, 1, 77, 33)"><g clip-path="url(#58ce909be8)"><path fill="#000000" d="M 48.730469 58.707031 L 48.699219 58.707031 C 46.796875 58.710938 44.917969 58.523438 43.054688 58.152344 C 41.191406 57.777344 39.382812 57.226562 37.632812 56.496094 C 35.878906 55.761719 34.214844 54.867188 32.640625 53.804688 C 31.070312 52.742188 29.617188 51.535156 28.28125 50.183594 C 26.9375 48.835938 25.738281 47.371094 24.679688 45.789062 C 23.625 44.207031 22.730469 42.535156 22 40.777344 C 21.273438 39.019531 20.722656 37.210938 20.347656 35.34375 C 19.972656 33.480469 19.785156 31.59375 19.78125 29.695312 C 19.742188 21.886719 23.109375 14.210938 29.023438 8.652344 C 34.585938 3.421875 41.816406 0.667969 48.875 1.105469 C 55.835938 0.730469 62.984375 3.507812 68.492188 8.726562 C 74.375 14.292969 77.71875 21.964844 77.679688 29.765625 C 77.675781 31.667969 77.488281 33.550781 77.113281 35.414062 C 76.738281 37.277344 76.1875 39.085938 75.457031 40.84375 C 74.722656 42.597656 73.828125 44.265625 72.769531 45.847656 C 71.707031 47.425781 70.503906 48.890625 69.15625 50.234375 C 67.820312 51.578125 66.367188 52.78125 64.789062 53.839844 C 63.214844 54.898438 61.550781 55.789062 59.796875 56.519531 C 58.042969 57.246094 56.234375 57.792969 54.375 58.164062 C 52.511719 58.53125 50.628906 58.714844 48.730469 58.707031 Z M 48.730469 58.707031 " fill-opacity="1" fill-rule="nonzero"/><g clip-path="url(#1c63e9fc0d)"><path fill="#000000" d="M 48.582031 142.410156 C 42.148438 142.402344 35.796875 141.664062 29.535156 140.195312 C 23.269531 138.722656 17.253906 136.558594 11.492188 133.703125 C 4.027344 129.992188 0.675781 126.996094 0.949219 124.28125 L 4.527344 88.886719 C 4.539062 83.296875 6.617188 77.992188 10.539062 73.546875 C 14.335938 69.242188 19.730469 66.039062 25.726562 64.523438 C 28.402344 63.859375 31.113281 63.535156 33.867188 63.550781 L 64.613281 63.550781 C 72.074219 64.003906 78.996094 66.839844 84.101562 71.539062 C 89.210938 76.234375 92.070312 82.410156 92.085938 88.875 L 96.332031 123.988281 C 96.660156 126.71875 93.394531 129.730469 86.042969 133.460938 C 80.269531 136.378906 74.238281 138.59375 67.949219 140.105469 C 61.65625 141.617188 55.277344 142.386719 48.804688 142.410156 Z M 48.582031 142.410156 " fill-opacity="1" fill-rule="nonzero"/></g></g></g></g><g mask="url(#de661202c8)"><g transform="matrix(1, 0, 0, 1, 87, 60)"><g clip-path="url(#780b1b31f2)"><g clip-path="url(#30621f0e17)"><path fill="#ffffff" d="M 77.070312 88.511719 C 77.070312 88.484375 77.152344 88.429688 77.253906 88.390625 C 77.355469 88.351562 77.441406 88.375 77.441406 88.441406 C 77.441406 88.503906 77.355469 88.558594 77.253906 88.558594 C 77.152344 88.558594 77.070312 88.539062 77.070312 88.511719 Z M 17.132812 86.660156 C 14.605469 85.714844 10.246094 82.792969 5.664062 78.972656 C 3.554688 77.210938 0.832031 74.550781 0.507812 73.933594 C -0.164062 72.648438 0.410156 66.761719 1.894531 59.800781 C 2.691406 56.074219 2.921875 55.347656 3.492188 54.777344 C 4.03125 54.238281 5.394531 53.523438 7.425781 52.71875 C 10.710938 51.414062 17.597656 49.277344 20.785156 48.570312 C 22.179688 48.261719 22.40625 48.242188 23.140625 48.371094 C 25.636719 48.800781 29.457031 51.3125 33.71875 55.328125 C 35.128906 56.65625 36.191406 58.449219 36.964844 60.792969 C 37.15625 61.371094 37.324219 61.859375 37.335938 61.878906 C 37.351562 61.894531 38.613281 62.050781 40.140625 62.222656 C 45.75 62.855469 48.746094 63.402344 50.003906 64.015625 C 51.386719 64.695312 52.644531 66.347656 53.324219 68.382812 C 53.667969 69.410156 54.011719 71.386719 54.011719 72.351562 L 54.011719 72.941406 L 52.84375 72.941406 L 53.359375 73.46875 C 54.226562 74.355469 54.550781 75.160156 54.609375 76.558594 C 54.652344 77.535156 54.609375 77.925781 54.394531 78.636719 L 54.128906 79.511719 L 29.902344 79.519531 L 28.164062 81.019531 C 24.988281 83.761719 22.503906 85.554688 20.65625 86.449219 C 19.742188 86.890625 19.523438 86.949219 18.75 86.941406 C 18.164062 86.9375 17.632812 86.84375 17.132812 86.660156 Z M 19.734375 84.273438 C 20.824219 83.714844 22.625 82.453125 24.648438 80.828125 L 26.214844 79.574219 L 22.449219 79.539062 L 18.683594 79.507812 L 18.683594 77.15625 L 52.277344 77.15625 L 52.273438 76.8125 C 52.273438 76.257812 52.039062 75.574219 51.71875 75.191406 C 51.550781 74.996094 50.632812 74.382812 49.675781 73.832031 L 47.9375 72.828125 L 33.632812 72.636719 C 25.769531 72.53125 18.628906 72.445312 17.765625 72.445312 L 16.203125 72.445312 L 16.203125 70.089844 L 17.660156 70.09375 C 18.460938 70.09375 24.972656 70.175781 32.132812 70.273438 C 39.289062 70.375 46.550781 70.457031 48.269531 70.457031 L 51.390625 70.460938 L 51.148438 69.582031 C 50.675781 67.871094 49.863281 66.605469 48.929688 66.125 C 47.703125 65.492188 41.585938 64.640625 32.007812 63.769531 C 28.015625 63.410156 20.140625 62.773438 19.625 62.773438 C 19.375 62.773438 19.367188 62.722656 19.40625 61.628906 C 19.429688 60.996094 19.46875 60.464844 19.488281 60.441406 C 19.507812 60.421875 20.1875 60.453125 20.992188 60.515625 C 21.800781 60.574219 22.476562 60.617188 22.492188 60.609375 C 22.507812 60.597656 22.328125 60.203125 22.09375 59.730469 C 21.597656 58.742188 21.378906 57.917969 21.667969 58.136719 L 23.484375 59.542969 L 25.125 60.8125 L 28.628906 61.105469 C 30.554688 61.269531 32.683594 61.460938 33.359375 61.53125 C 34.035156 61.605469 34.613281 61.636719 34.648438 61.605469 C 34.730469 61.519531 34.226562 60.277344 33.644531 59.136719 C 33.066406 58.011719 31.996094 56.867188 29.960938 55.203125 C 26.421875 52.304688 23.761719 50.625 22.699219 50.625 C 22.097656 50.625 17.984375 51.699219 14.839844 52.671875 C 11.339844 53.761719 8.410156 54.828125 6.683594 55.652344 C 5.488281 56.222656 5.261719 56.378906 5.117188 56.726562 C 4.8125 57.453125 3.769531 62.503906 3.199219 66 C 2.917969 67.738281 2.566406 70.925781 2.566406 71.769531 C 2.566406 72.585938 2.601562 72.699219 2.984375 73.203125 C 4.058594 74.609375 9.976562 79.550781 13.042969 81.605469 C 15.4375 83.210938 18.175781 84.703125 18.742188 84.714844 C 18.8125 84.714844 19.257812 84.515625 19.734375 84.273438 Z M 56.925781 61.824219 C 56.449219 61.808594 54.4375 61.730469 52.460938 61.660156 C 50.484375 61.585938 48.503906 61.46875 48.0625 61.402344 C 46.09375 61.097656 42.601562 58.804688 37.703125 54.597656 C 34.292969 51.667969 34.023438 51.328125 33.597656 49.367188 C 33.121094 47.167969 33.554688 40.105469 34.253906 38.636719 C 34.65625 37.796875 35.460938 37.101562 36.570312 36.632812 C 37.0625 36.425781 37.453125 36.210938 37.441406 36.160156 C 37.425781 36.105469 36.960938 35.253906 36.40625 34.265625 C 34.726562 31.285156 32.777344 27.511719 31.71875 25.210938 C 28.765625 18.773438 27.699219 14.789062 28.238281 12.171875 C 28.585938 10.484375 30 8.417969 31.441406 7.492188 C 32 7.132812 32.054688 7.054688 32.25 6.277344 C 32.816406 4.03125 34.730469 1.953125 37.144531 0.972656 C 37.578125 0.796875 37.96875 0.699219 38.019531 0.753906 C 38.066406 0.808594 41.074219 6.402344 44.699219 13.183594 C 48.324219 19.964844 51.320312 25.539062 51.351562 25.574219 C 51.386719 25.609375 51.59375 25.53125 51.808594 25.402344 C 52.066406 25.25 52.527344 25.152344 53.136719 25.117188 C 54.691406 25.027344 56.394531 25.722656 59.15625 27.570312 C 61.589844 29.203125 65.09375 32.09375 65.59375 32.886719 C 66.4375 34.222656 67.359375 37.964844 68.199219 43.4375 C 68.746094 47.019531 69.035156 49.769531 69.054688 51.558594 C 69.070312 53.164062 69.050781 53.335938 68.777344 53.851562 C 68.070312 55.195312 65.691406 57.644531 62.421875 60.390625 L 60.613281 61.910156 L 59.203125 61.882812 C 58.425781 61.871094 57.402344 61.84375 56.925781 61.824219 Z M 60.652344 58.738281 C 63.609375 56.28125 66.121094 53.773438 66.574219 52.824219 C 66.738281 52.472656 66.75 52.183594 66.648438 50.808594 C 66.246094 45.417969 64.804688 37.171875 63.859375 34.84375 C 63.542969 34.066406 63.378906 33.894531 61.171875 32.078125 C 57.917969 29.394531 54.648438 27.445312 53.40625 27.445312 C 53.210938 27.445312 52.785156 27.59375 52.460938 27.777344 C 52.136719 27.957031 51.308594 28.390625 50.621094 28.738281 C 49.542969 29.28125 49.359375 29.417969 49.285156 29.738281 C 49.238281 29.945312 49.136719 32.007812 49.058594 34.324219 C 48.976562 36.644531 48.78125 41.550781 48.617188 45.230469 C 48.457031 48.910156 48.347656 51.945312 48.375 51.976562 C 48.476562 52.078125 50.167969 51.738281 50.863281 51.480469 C 51.828125 51.117188 52.425781 50.492188 52.6875 49.5625 C 52.96875 48.550781 53.34375 46.015625 53.570312 43.5625 C 53.726562 41.847656 54.136719 36.066406 54.136719 35.539062 C 54.136719 35.359375 54.945312 35.324219 55.929688 35.460938 L 56.523438 35.542969 L 56.433594 37.335938 L 56.34375 39.125 L 56.941406 38.671875 C 57.269531 38.421875 57.558594 38.273438 57.582031 38.347656 C 57.636719 38.507812 56.988281 39.925781 56.503906 40.710938 C 56.1875 41.21875 56.144531 41.441406 56.007812 43.191406 C 55.691406 47.28125 55.160156 50.261719 54.554688 51.378906 C 53.871094 52.632812 52.589844 53.527344 50.808594 53.988281 C 49.726562 54.269531 47.578125 54.421875 46.535156 54.292969 L 45.832031 54.203125 L 45.832031 53.46875 C 45.832031 53.066406 45.8125 52.734375 45.792969 52.734375 C 45.769531 52.734375 45.367188 52.925781 44.894531 53.15625 C 44.167969 53.511719 43.367188 53.789062 41.511719 54.332031 C 41.25 54.40625 41.351562 54.519531 42.550781 55.453125 C 44.199219 56.742188 46.828125 58.519531 47.550781 58.84375 C 47.945312 59.019531 48.578125 59.113281 49.90625 59.199219 C 51.664062 59.3125 56.445312 59.496094 58.609375 59.535156 L 59.671875 59.554688 Z M 40.191406 50.117188 L 40.28125 47 L 41.335938 45.457031 C 42.625 43.5625 43.765625 41.386719 43.964844 40.421875 C 44.089844 39.832031 44.082031 39.542969 43.929688 38.789062 C 43.769531 38.019531 42.992188 35.847656 42.804688 35.660156 C 42.777344 35.632812 42.257812 36.007812 41.65625 36.5 C 40.816406 37.183594 40.089844 37.621094 38.550781 38.371094 C 37.445312 38.90625 36.488281 39.445312 36.425781 39.5625 C 36.171875 40.050781 35.855469 43.652344 35.851562 46.101562 C 35.851562 49.785156 35.914062 49.929688 38.5625 52.195312 C 39.300781 52.832031 39.953125 53.324219 40.003906 53.292969 C 40.054688 53.261719 40.140625 51.832031 40.191406 50.117188 Z M 43.402344 51.238281 C 44.265625 50.917969 44.582031 50.539062 45.417969 48.828125 L 46.082031 47.464844 L 46.203125 45.046875 C 46.265625 43.71875 46.34375 42.183594 46.375 41.640625 L 46.429688 40.648438 L 46.132812 41.582031 C 45.742188 42.816406 44.796875 44.632812 43.628906 46.402344 L 42.679688 47.835938 L 42.613281 49.667969 C 42.574219 50.671875 42.585938 51.496094 42.632812 51.496094 C 42.683594 51.496094 43.027344 51.378906 43.402344 51.238281 Z M 46.695312 33.644531 C 46.835938 29.40625 46.851562 29.21875 47.144531 28.570312 C 47.484375 27.8125 47.507812 27.855469 46.496094 27.375 C 46.148438 27.207031 45.777344 27.101562 45.671875 27.140625 C 45.300781 27.285156 44.441406 29.453125 44.023438 31.308594 L 43.804688 32.257812 L 44.632812 33.914062 C 45.429688 35.511719 46.3125 37.890625 46.335938 38.496094 C 46.347656 38.75 46.359375 38.742188 46.449219 38.417969 C 46.503906 38.210938 46.617188 36.066406 46.695312 33.644531 Z M 40.554688 34.269531 C 41.039062 33.859375 41.046875 33.839844 41.429688 31.957031 L 41.816406 30.058594 L 39.074219 24.566406 C 35.515625 17.4375 33.648438 13.378906 32.390625 10.03125 C 32.304688 9.800781 32.261719 9.824219 31.863281 10.277344 C 31.324219 10.890625 30.792969 11.925781 30.578125 12.785156 C 30.035156 14.933594 32.046875 20.792969 35.863281 28.171875 C 37.015625 30.402344 39.296875 34.542969 39.542969 34.855469 C 39.679688 35.027344 39.621094 35.0625 40.554688 34.273438 Z M 43.148438 26.484375 C 43.382812 26.039062 44.183594 25.242188 44.652344 24.996094 C 44.890625 24.867188 45.328125 24.800781 45.867188 24.800781 C 46.59375 24.808594 46.84375 24.875 47.695312 25.296875 C 48.238281 25.566406 48.679688 25.78125 48.679688 25.773438 C 48.679688 25.710938 36.988281 3.929688 36.914062 3.855469 C 36.738281 3.675781 35.253906 5.273438 34.886719 6.035156 C 34.421875 6.996094 34.320312 8.09375 34.613281 8.988281 C 34.984375 10.125 35.769531 12.042969 36.738281 14.183594 C 37.628906 16.148438 42.863281 26.828125 42.9375 26.828125 C 42.957031 26.828125 43.050781 26.671875 43.148438 26.484375 Z M 43.148438 26.484375 " fill-opacity="1" fill-rule="nonzero"/></g></g></g></g><g clip-path="url(#aa4e067a87)"><path fill="#0097b2" d="M 77.675781 199.398438 L 173.601562 199.398438 L 173.601562 375.136719 L 77.675781 375.136719 Z M 77.675781 199.398438 " fill-opacity="1" fill-rule="nonzero"/></g><g mask="url(#f00db9ec52)"><g transform="matrix(1, 0, 0, 1, 77, 233)"><g clip-path="url(#6e9222c6df)"><g clip-path="url(#690d92abc2)"><path fill="#000000" d="M 48.730469 58.105469 L 48.699219 58.105469 C 46.796875 58.105469 44.917969 57.921875 43.054688 57.546875 C 41.191406 57.175781 39.382812 56.625 37.632812 55.890625 C 35.878906 55.160156 34.214844 54.261719 32.640625 53.199219 C 31.070312 52.140625 29.617188 50.933594 28.28125 49.582031 C 26.9375 48.234375 25.738281 46.769531 24.679688 45.183594 C 23.625 43.601562 22.730469 41.933594 22 40.175781 C 21.273438 38.417969 20.722656 36.605469 20.347656 34.742188 C 19.972656 32.875 19.785156 30.992188 19.78125 29.089844 C 19.742188 21.28125 23.109375 13.605469 29.023438 8.050781 C 34.585938 2.820312 41.816406 0.0625 48.875 0.503906 C 55.835938 0.128906 62.984375 2.902344 68.492188 8.125 C 74.375 13.691406 77.71875 21.359375 77.679688 29.164062 C 77.675781 31.0625 77.488281 32.945312 77.113281 34.8125 C 76.738281 36.675781 76.1875 38.484375 75.457031 40.242188 C 74.722656 41.996094 73.828125 43.664062 72.769531 45.246094 C 71.707031 46.824219 70.503906 48.285156 69.15625 49.628906 C 67.820312 50.976562 66.367188 52.179688 64.789062 53.238281 C 63.214844 54.292969 61.550781 55.1875 59.796875 55.914062 C 58.042969 56.640625 56.234375 57.191406 54.375 57.558594 C 52.511719 57.929688 50.628906 58.109375 48.730469 58.105469 Z M 48.730469 58.105469 " fill-opacity="1" fill-rule="nonzero"/></g><g clip-path="url(#1b859514f8)"><path fill="#000000" d="M 48.582031 141.808594 C 42.148438 141.800781 35.796875 141.0625 29.535156 139.589844 C 23.269531 138.121094 17.253906 135.957031 11.492188 133.101562 C 4.027344 129.386719 0.675781 126.390625 0.949219 123.675781 L 4.527344 88.285156 C 4.539062 82.691406 6.617188 77.390625 10.539062 72.945312 C 14.335938 68.640625 19.730469 65.433594 25.726562 63.917969 C 28.402344 63.257812 31.113281 62.933594 33.867188 62.949219 L 64.613281 62.949219 C 72.074219 63.402344 78.996094 66.238281 84.101562 70.933594 C 89.210938 75.628906 92.070312 81.808594 92.085938 88.273438 L 96.332031 123.386719 C 96.660156 126.117188 93.394531 129.125 86.042969 132.855469 C 80.269531 135.777344 74.238281 137.992188 67.949219 139.503906 C 61.65625 141.015625 55.277344 141.78125 48.804688 141.804688 Z M 48.582031 141.808594 " fill-opacity="1" fill-rule="nonzero"/></g></g></g></g><g clip-path="url(#4fbb4f1a71)"><path fill="#0097b2" d="M 201.398438 199.398438 L 297.324219 199.398438 L 297.324219 375.136719 L 201.398438 375.136719 Z M 201.398438 199.398438 " fill-opacity="1" fill-rule="nonzero"/></g><g mask="url(#40e1cd1b0a)"><g transform="matrix(1, 0, 0, 1, 201, 233)"><g clip-path="url(#f37f59ab35)"><g clip-path="url(#93ca0a7aed)"><path fill="#000000" d="M 48.457031 58.105469 L 48.421875 58.105469 C 46.523438 58.105469 44.644531 57.921875 42.78125 57.546875 C 40.917969 57.175781 39.109375 56.625 37.355469 55.890625 C 35.605469 55.160156 33.941406 54.261719 32.367188 53.199219 C 30.792969 52.140625 29.339844 50.933594 28.007812 49.582031 C 26.664062 48.234375 25.460938 46.769531 24.40625 45.183594 C 23.347656 43.601562 22.457031 41.933594 21.726562 40.175781 C 20.996094 38.417969 20.445312 36.605469 20.074219 34.742188 C 19.699219 32.875 19.511719 30.992188 19.507812 29.089844 C 19.46875 21.28125 22.835938 13.605469 28.746094 8.050781 C 34.308594 2.820312 41.542969 0.0625 48.597656 0.503906 C 55.5625 0.128906 62.710938 2.902344 68.21875 8.125 C 74.097656 13.691406 77.445312 21.359375 77.40625 29.164062 C 77.402344 31.0625 77.214844 32.945312 76.839844 34.8125 C 76.464844 36.675781 75.910156 38.484375 75.179688 40.242188 C 74.449219 41.996094 73.554688 43.664062 72.492188 45.246094 C 71.433594 46.824219 70.230469 48.285156 68.882812 49.628906 C 67.546875 50.976562 66.089844 52.179688 64.515625 53.238281 C 62.941406 54.292969 61.277344 55.1875 59.523438 55.914062 C 57.769531 56.640625 55.960938 57.191406 54.097656 57.558594 C 52.234375 57.929688 50.355469 58.109375 48.457031 58.105469 Z M 48.457031 58.105469 " fill-opacity="1" fill-rule="nonzero"/></g><g clip-path="url(#951a07ccf7)"><path fill="#000000" d="M 48.308594 141.808594 C 41.871094 141.800781 35.523438 141.0625 29.257812 139.589844 C 22.996094 138.121094 16.980469 135.957031 11.21875 133.101562 C 3.753906 129.386719 0.402344 126.390625 0.675781 123.675781 L 4.25 88.285156 C 4.261719 82.691406 6.34375 77.390625 10.261719 72.945312 C 14.0625 68.640625 19.457031 65.433594 25.453125 63.917969 C 28.125 63.257812 30.839844 62.933594 33.59375 62.949219 L 64.339844 62.949219 C 71.796875 63.402344 78.71875 66.238281 83.828125 70.933594 C 88.9375 75.628906 91.792969 81.808594 91.8125 88.273438 L 96.058594 123.386719 C 96.386719 126.117188 93.117188 129.125 85.769531 132.855469 C 79.996094 135.777344 73.964844 137.992188 67.671875 139.503906 C 61.382812 141.015625 55 141.78125 48.53125 141.804688 Z M 48.308594 141.808594 " fill-opacity="1" fill-rule="nonzero"/></g></g></g></g><g clip-path="url(#4f5800f921)"><path fill="#0097b2" d="M 201.398438 0 L 297.324219 0 L 297.324219 175.742188 L 201.398438 175.742188 Z M 201.398438 0 " fill-opacity="1" fill-rule="nonzero"/></g><g mask="url(#4fe82bfd85)"><g transform="matrix(1, 0, 0, 1, 201, 33)"><g clip-path="url(#7de9a6b60a)"><path fill="#000000" d="M 48.457031 58.707031 L 48.421875 58.707031 C 46.523438 58.710938 44.644531 58.523438 42.78125 58.152344 C 40.917969 57.777344 39.109375 57.226562 37.355469 56.496094 C 35.605469 55.761719 33.941406 54.867188 32.367188 53.804688 C 30.792969 52.742188 29.339844 51.535156 28.007812 50.183594 C 26.664062 48.835938 25.460938 47.371094 24.40625 45.789062 C 23.347656 44.207031 22.457031 42.535156 21.726562 40.777344 C 20.996094 39.019531 20.445312 37.210938 20.074219 35.34375 C 19.699219 33.480469 19.511719 31.59375 19.507812 29.695312 C 19.46875 21.886719 22.835938 14.210938 28.746094 8.652344 C 34.308594 3.421875 41.542969 0.667969 48.597656 1.105469 C 55.5625 0.730469 62.710938 3.507812 68.21875 8.726562 C 74.097656 14.292969 77.445312 21.964844 77.40625 29.765625 C 77.402344 31.667969 77.214844 33.550781 76.839844 35.414062 C 76.464844 37.277344 75.910156 39.085938 75.179688 40.84375 C 74.449219 42.597656 73.554688 44.265625 72.492188 45.847656 C 71.433594 47.425781 70.230469 48.890625 68.882812 50.234375 C 67.546875 51.578125 66.089844 52.78125 64.515625 53.839844 C 62.941406 54.898438 61.277344 55.789062 59.523438 56.519531 C 57.769531 57.246094 55.960938 57.792969 54.097656 58.164062 C 52.234375 58.53125 50.355469 58.714844 48.457031 58.707031 Z M 48.457031 58.707031 " fill-opacity="1" fill-rule="nonzero"/><g clip-path="url(#cb977d0621)"><path fill="#000000" d="M 48.308594 142.410156 C 41.871094 142.402344 35.523438 141.664062 29.257812 140.195312 C 22.996094 138.722656 16.980469 136.558594 11.21875 133.703125 C 3.753906 129.992188 0.402344 126.996094 0.675781 124.28125 L 4.25 88.886719 C 4.261719 83.296875 6.34375 77.992188 10.261719 73.546875 C 14.0625 69.242188 19.457031 66.039062 25.453125 64.523438 C 28.125 63.859375 30.839844 63.535156 33.59375 63.550781 L 64.339844 63.550781 C 71.796875 64.003906 78.71875 66.839844 83.828125 71.539062 C 88.9375 76.234375 91.792969 82.410156 91.8125 88.875 L 96.058594 123.988281 C 96.386719 126.71875 93.117188 129.730469 85.769531 133.460938 C 79.996094 136.378906 73.964844 138.59375 67.671875 140.105469 C 61.382812 141.617188 55 142.386719 48.53125 142.410156 Z M 48.308594 142.410156 " fill-opacity="1" fill-rule="nonzero"/></g></g></g></g><g mask="url(#e5c12ee49b)"><g transform="matrix(1, 0, 0, 1, 77, 272)"><g clip-path="url(#9063671219)"><g clip-path="url(#074a50687e)"><path fill="#ffffff" d="M 35.125 32.347656 C 35.125 31.144531 35.277344 29.976562 35.566406 28.863281 L 52.484375 45.78125 C 51.371094 46.070312 50.203125 46.222656 49 46.222656 C 41.335938 46.222656 35.125 40.015625 35.125 32.347656 Z M 49 18.472656 C 47.796875 18.472656 46.628906 18.625 45.515625 18.914062 L 62.4375 35.832031 C 62.722656 34.71875 62.878906 33.550781 62.878906 32.347656 C 62.878906 24.683594 56.664062 18.472656 49 18.472656 Z M 49 7.75 C 44.5625 7.75 40.269531 8.441406 36.195312 9.59375 L 41.421875 14.820312 C 43.746094 13.816406 46.308594 13.253906 49 13.253906 C 59.546875 13.253906 68.09375 21.804688 68.09375 32.347656 C 68.09375 35.042969 67.535156 37.601562 66.527344 39.925781 L 75.777344 49.175781 C 88.535156 41.964844 96.921875 32.347656 96.921875 32.347656 C 96.921875 32.347656 75.464844 7.75 49 7.75 Z M 56.578125 49.875 C 54.253906 50.882812 51.695312 51.441406 49 51.441406 C 38.453125 51.441406 29.90625 42.890625 29.90625 32.347656 C 29.90625 29.652344 30.464844 27.09375 31.472656 24.769531 L 22.222656 15.519531 C 9.46875 22.730469 1.078125 32.347656 1.078125 32.347656 C 1.078125 32.347656 22.535156 56.949219 49 56.949219 C 53.4375 56.949219 57.730469 56.253906 61.808594 55.105469 Z M 78.992188 62.34375 C 80.367188 60.96875 80.367188 58.742188 78.992188 57.367188 L 23.726562 2.097656 C 22.351562 0.722656 20.125 0.722656 18.75 2.097656 C 17.375 3.472656 17.375 5.699219 18.75 7.074219 L 74.019531 62.34375 C 74.703125 63.03125 75.605469 63.375 76.507812 63.375 C 77.40625 63.371094 78.308594 63.03125 78.992188 62.34375 Z M 78.992188 62.34375 " fill-opacity="1" fill-rule="nonzero"/></g></g></g></g><g mask="url(#76621e89e7)"><g transform="matrix(1, 0, 0, 1, 218, 253)"><g clip-path="url(#119ce1bdd6)"><g clip-path="url(#17b1032d51)"><path fill="#ffffff" d="M 7.628906 16.785156 C 11.214844 9.105469 18.21875 0.742188 31.75 1.132812 C 60.171875 1.953125 62.144531 30.523438 55.136719 44.097656 C 49.203125 55.585938 34.105469 65.769531 32.765625 70.789062 C 31.683594 74.839844 30.039062 88.945312 17.449219 88.960938 C 6.78125 88.976562 0.699219 80.765625 1.523438 71.570312 C 2.128906 64.789062 6.757812 59.097656 9.429688 62.816406 C 12.53125 67.136719 2.824219 70.601562 7.601562 78.136719 C 9.820312 81.640625 12.859375 83.886719 17.457031 83.886719 C 26.691406 83.886719 26.925781 72.34375 28.792969 68.941406 C 32.074219 62.964844 51.121094 47.582031 51.957031 31.398438 C 52.617188 18.699219 45.398438 7.046875 29.398438 7.972656 C 14.28125 8.847656 10.886719 21.164062 10.339844 27.617188 C 9.886719 32.984375 11.644531 38.953125 8.507812 38.84375 C 5.464844 38.730469 3.769531 25.050781 7.628906 16.785156 Z M 7.628906 16.785156 " fill-opacity="1" fill-rule="evenodd"/></g><path fill="#ffffff" d="M 36.734375 42.78125 C 38.894531 43.753906 42.566406 37.980469 43.582031 32.65625 C 44.839844 26.035156 43.855469 20.121094 38.378906 16.074219 C 28.292969 8.613281 15.925781 14.542969 14.035156 25.964844 C 12.03125 38.074219 23.375 36.992188 19.957031 45.234375 C 18.910156 47.753906 15.527344 50.734375 14.226562 52.90625 C 12.316406 56.097656 13.078125 60.40625 15.855469 62.074219 C 22.5 66.066406 30.125 56.917969 30.882812 46.144531 C 31.53125 36.984375 19.371094 33.328125 20.105469 26.421875 C 20.742188 20.453125 26.007812 16.691406 32.078125 18.207031 C 38.152344 19.726562 41.769531 28.386719 38.597656 35.558594 C 37.140625 38.847656 34.542969 41.796875 36.734375 42.78125 Z M 36.734375 42.78125 " fill-opacity="1" fill-rule="evenodd"/></g></g></g><g mask="url(#9caaf4d9b0)"><g transform="matrix(1, 0, 0, 1, 205, 53)"><g clip-path="url(#8a330db046)"><g clip-path="url(#7be9dba855)"><path fill="#ffffff" d="M 11.695312 39.085938 C 10.257812 39.070312 8.886719 39.683594 7.949219 40.769531 C 6.375 42.53125 5.007812 44.480469 3.882812 46.585938 C 1.628906 50.792969 0.347656 55.613281 0.347656 60.695312 C 0.347656 77.179688 13.824219 90.65625 30.308594 90.65625 C 38.550781 90.65625 46.074219 87.296875 51.492188 81.878906 C 54.199219 79.171875 56.390625 75.945312 57.90625 72.355469 C 58.632812 70.746094 58.425781 68.867188 57.371094 67.449219 C 56.320312 66.03125 54.578125 65.296875 52.828125 65.527344 C 51.074219 65.757812 49.585938 66.917969 48.933594 68.558594 C 47.910156 70.976562 46.429688 73.15625 44.597656 74.988281 C 40.933594 78.652344 35.914062 80.910156 30.308594 80.910156 C 19.097656 80.910156 10.09375 71.910156 10.09375 60.695312 C 10.09375 57.242188 10.953125 54.019531 12.472656 51.183594 C 13.230469 49.765625 14.15625 48.449219 15.222656 47.253906 C 16.519531 45.839844 16.867188 43.792969 16.105469 42.027344 C 15.34375 40.265625 13.617188 39.113281 11.695312 39.085938 Z M 11.695312 39.085938 " fill-opacity="1" fill-rule="evenodd"/></g><g clip-path="url(#3135c01dce)"><path fill="#ffffff" d="M 21.9375 0.289062 C 16.398438 0.289062 11.902344 4.785156 11.902344 10.324219 C 11.898438 10.835938 11.945312 11.347656 12.019531 11.855469 C 12.019531 11.855469 12.015625 11.859375 12.019531 11.863281 L 18.070312 49.167969 C 18.449219 51.515625 20.472656 53.246094 22.851562 53.261719 L 54.566406 53.457031 L 65.527344 78.894531 C 66.542969 81.25 69.214844 82.414062 71.632812 81.554688 L 84.503906 76.976562 C 87.042969 76.074219 88.367188 73.28125 87.464844 70.746094 C 86.5625 68.210938 83.773438 66.890625 81.238281 67.792969 L 72.667969 70.84375 L 62.261719 46.675781 C 61.496094 44.898438 59.75 43.742188 57.816406 43.730469 L 27.035156 43.539062 L 26.554688 40.609375 L 48.328125 40.609375 C 50.085938 40.636719 51.722656 39.710938 52.605469 38.195312 C 53.492188 36.675781 53.492188 34.796875 52.605469 33.28125 C 51.722656 31.761719 50.085938 30.839844 48.328125 30.863281 L 24.976562 30.863281 L 23.257812 20.269531 C 28.171875 19.625 31.96875 15.417969 31.96875 10.324219 C 31.96875 4.785156 27.476562 0.289062 21.9375 0.289062 Z M 21.9375 0.289062 " fill-opacity="1" fill-rule="evenodd"/></g></g></g></g><g clip-path="url(#48c444b1b8)"><g clip-path="url(#104ecc7e92)"><path fill="#0097b2" d="M 117.515625 127.410156 L 249.363281 127.410156 L 249.363281 259.257812 L 117.515625 259.257812 Z M 117.515625 127.410156 " fill-opacity="1" fill-rule="nonzero"/></g></g><g mask="url(#cd23bc2c67)"><g transform="matrix(1, 0, 0, 1, 125, 135)"><g clip-path="url(#8b17550461)"><g clip-path="url(#14584d2a3b)"><g clip-path="url(#7256f79c27)"><path fill="#000000" d="M 0.636719 0.53125 L 116.238281 0.53125 L 116.238281 116.136719 L 0.636719 116.136719 Z M 0.636719 0.53125 " fill-opacity="1" fill-rule="nonzero"/></g></g></g></g></g><g clip-path="url(#012a68cf33)"><path fill="#ffffff" d="M 223.289062 190.714844 C 222.363281 188.273438 219.957031 187.246094 217.824219 187.519531 C 215.425781 187.820312 213.101562 189.796875 213.304688 192.984375 L 213.667969 198.757812 C 213.84375 201.46875 213.613281 204.148438 212.972656 206.789062 C 210.9375 205.433594 208.34375 205.59375 206.433594 207.277344 C 206.421875 207.289062 195.871094 217.152344 195.871094 217.152344 C 186.742188 223.417969 188.203125 233.617188 188.347656 241.539062 C 188.351562 241.742188 188.398438 241.9375 188.476562 242.125 C 188.558594 242.308594 188.675781 242.472656 188.820312 242.617188 C 188.96875 242.757812 189.136719 242.863281 189.328125 242.9375 C 189.515625 243.011719 189.714844 243.046875 189.917969 243.042969 C 190.121094 243.039062 190.316406 243 190.503906 242.917969 C 190.691406 242.835938 190.855469 242.722656 190.996094 242.574219 C 191.136719 242.429688 191.246094 242.261719 191.320312 242.070312 C 191.394531 241.882812 191.433594 241.683594 191.429688 241.480469 C 191.289062 233.984375 189.90625 224.914062 197.703125 219.636719 C 197.859375 219.53125 197.574219 219.421875 208.484375 209.578125 C 209.609375 208.5625 210.828125 208.925781 211.570312 209.578125 C 212.296875 210.21875 212.839844 211.417969 211.980469 212.683594 L 206.160156 221.277344 C 206.042969 221.445312 205.964844 221.628906 205.925781 221.832031 C 205.882812 222.03125 205.882812 222.230469 205.921875 222.429688 C 205.960938 222.632812 206.035156 222.816406 206.148438 222.988281 C 206.257812 223.160156 206.398438 223.300781 206.570312 223.417969 C 206.738281 223.53125 206.921875 223.609375 207.121094 223.648438 C 207.324219 223.691406 207.523438 223.691406 207.722656 223.652344 C 207.925781 223.617188 208.109375 223.539062 208.28125 223.425781 C 208.453125 223.316406 208.59375 223.175781 208.707031 223.003906 L 214.53125 214.414062 C 214.996094 213.753906 215.292969 213.023438 215.425781 212.230469 C 215.558594 211.433594 215.515625 210.648438 215.292969 209.871094 C 216.507812 206.195312 216.992188 202.425781 216.746094 198.5625 L 216.378906 192.789062 C 216.261719 190.917969 217.882812 190.617188 218.210938 190.574219 C 218.539062 190.53125 220.183594 190.417969 220.539062 192.261719 L 221.273438 195.832031 C 220.441406 199.542969 220.011719 202.117188 218.046875 205.808594 C 217.949219 205.988281 217.890625 206.179688 217.871094 206.382812 C 217.851562 206.585938 217.871094 206.785156 217.933594 206.980469 C 217.992188 207.175781 218.085938 207.355469 218.214844 207.511719 C 218.347656 207.667969 218.5 207.796875 218.679688 207.890625 C 218.863281 207.988281 219.054688 208.046875 219.257812 208.066406 C 219.460938 208.085938 219.660156 208.066406 219.855469 208.003906 C 220.050781 207.945312 220.226562 207.851562 220.382812 207.722656 C 220.542969 207.59375 220.667969 207.4375 220.765625 207.257812 C 222.039062 204.863281 222.972656 202.34375 223.5625 199.699219 L 224.828125 194.054688 C 225.238281 192.222656 226.882812 192.386719 227.207031 192.441406 C 227.53125 192.492188 229.144531 192.84375 228.96875 194.710938 L 228.367188 202.179688 C 227.042969 216.082031 217.832031 220.558594 211.542969 241.058594 C 211.484375 241.253906 211.464844 241.453125 211.484375 241.65625 C 211.503906 241.859375 211.558594 242.050781 211.65625 242.230469 C 211.75 242.414062 211.878906 242.566406 212.035156 242.699219 C 212.191406 242.828125 212.371094 242.925781 212.566406 242.984375 C 212.761719 243.042969 212.960938 243.0625 213.164062 243.042969 C 213.367188 243.023438 213.558594 242.96875 213.738281 242.871094 C 213.917969 242.777344 214.074219 242.648438 214.203125 242.492188 C 214.335938 242.332031 214.429688 242.15625 214.488281 241.960938 C 220.675781 221.789062 230.019531 217.351562 231.4375 202.460938 L 232.035156 194.992188 C 232.507812 189.941406 226.519531 187.644531 223.289062 190.714844 Z M 223.289062 190.714844 " fill-opacity="1" fill-rule="nonzero"/></g><g clip-path="url(#b0b4da11b3)"><path fill="#ffffff" d="M 175.832031 217.152344 C 175.832031 217.152344 165.28125 207.289062 165.269531 207.277344 C 161.996094 204.394531 157.386719 206.324219 156.386719 209.953125 C 153.804688 206.710938 152.054688 203.070312 151.144531 199.027344 L 150.429688 195.832031 L 151.164062 192.261719 C 151.519531 190.417969 153.164062 190.53125 153.492188 190.574219 C 153.820312 190.617188 155.441406 190.917969 155.324219 192.789062 C 154.953125 198.652344 154.871094 199.398438 154.902344 201.042969 C 154.90625 201.25 154.949219 201.445312 155.03125 201.632812 C 155.113281 201.820312 155.230469 201.984375 155.375 202.125 C 155.523438 202.269531 155.691406 202.375 155.882812 202.449219 C 156.070312 202.523438 156.269531 202.5625 156.472656 202.558594 C 156.679688 202.554688 156.875 202.511719 157.0625 202.429688 C 157.25 202.347656 157.414062 202.230469 157.554688 202.085938 C 157.695312 201.9375 157.804688 201.769531 157.878906 201.578125 C 157.953125 201.386719 157.988281 201.191406 157.984375 200.984375 C 157.957031 199.492188 158.015625 199.035156 158.398438 192.984375 C 158.601562 189.796875 156.277344 187.820312 153.878906 187.519531 C 151.746094 187.246094 149.339844 188.273438 148.414062 190.714844 C 145.179688 187.644531 139.195312 189.941406 139.667969 194.992188 L 140.265625 202.460938 C 141.679688 217.316406 151.046875 221.855469 157.214844 241.960938 C 157.273438 242.15625 157.367188 242.332031 157.5 242.488281 C 157.628906 242.648438 157.785156 242.773438 157.964844 242.871094 C 158.144531 242.964844 158.335938 243.023438 158.539062 243.042969 C 158.742188 243.0625 158.941406 243.042969 159.136719 242.980469 C 159.332031 242.921875 159.507812 242.828125 159.667969 242.695312 C 159.824219 242.566406 159.949219 242.410156 160.046875 242.230469 C 160.144531 242.050781 160.199219 241.859375 160.21875 241.65625 C 160.238281 241.453125 160.21875 241.253906 160.160156 241.058594 C 153.871094 220.558594 144.660156 216.082031 143.335938 202.179688 L 142.734375 194.710938 C 142.558594 192.84375 144.171875 192.492188 144.496094 192.441406 C 144.820312 192.386719 146.464844 192.222656 146.875 194.054688 L 148.140625 199.699219 C 148.886719 203.015625 150.15625 206.113281 151.953125 209 C 153.746094 211.886719 155.964844 214.394531 158.605469 216.53125 L 162.996094 223.003906 C 163.109375 223.175781 163.253906 223.316406 163.421875 223.425781 C 163.59375 223.539062 163.777344 223.617188 163.980469 223.652344 C 164.179688 223.691406 164.378906 223.691406 164.582031 223.648438 C 164.78125 223.609375 164.964844 223.53125 165.132812 223.417969 C 165.304688 223.300781 165.445312 223.160156 165.554688 222.988281 C 165.667969 222.816406 165.742188 222.632812 165.78125 222.429688 C 165.820312 222.230469 165.820312 222.03125 165.777344 221.832031 C 165.738281 221.628906 165.660156 221.445312 165.542969 221.277344 L 159.722656 212.683594 C 158.863281 211.417969 159.40625 210.21875 160.132812 209.578125 C 160.875 208.925781 162.09375 208.5625 163.21875 209.578125 C 174.160156 219.449219 173.847656 219.53125 174 219.636719 C 181.742188 224.875 180.417969 233.789062 180.273438 241.480469 C 180.269531 241.683594 180.304688 241.882812 180.378906 242.074219 C 180.453125 242.261719 180.5625 242.429688 180.703125 242.578125 C 180.847656 242.726562 181.011719 242.839844 181.199219 242.921875 C 181.386719 243.003906 181.582031 243.046875 181.785156 243.050781 C 181.988281 243.054688 182.1875 243.019531 182.378906 242.945312 C 182.566406 242.871094 182.734375 242.761719 182.882812 242.621094 C 183.03125 242.476562 183.144531 242.3125 183.226562 242.125 C 183.308594 241.9375 183.351562 241.742188 183.355469 241.539062 C 183.496094 233.921875 185.050781 223.480469 175.832031 217.152344 Z M 175.832031 217.152344 " fill-opacity="1" fill-rule="nonzero"/></g><path fill="#ffffff" d="M 192.210938 151.273438 C 192.015625 151.328125 191.835938 151.417969 191.671875 151.542969 C 191.511719 151.667969 191.378906 151.816406 191.277344 151.996094 C 191.175781 152.171875 191.113281 152.363281 191.089844 152.566406 C 191.0625 152.769531 191.078125 152.96875 191.128906 153.164062 C 191.183594 153.363281 191.273438 153.542969 191.398438 153.703125 C 191.523438 153.863281 191.675781 153.996094 191.851562 154.097656 C 192.03125 154.199219 192.21875 154.261719 192.421875 154.289062 C 192.625 154.3125 192.824219 154.300781 193.023438 154.246094 C 202.3125 151.707031 209.519531 158.339844 211.835938 166.207031 C 213.640625 172.320312 212.625 178.875 208.980469 184.660156 C 204.613281 191.589844 196.621094 197.09375 185.851562 200.585938 C 139.953125 185.695312 161.988281 140.851562 184.953125 157.335938 C 185.121094 157.453125 185.300781 157.535156 185.5 157.582031 C 185.699219 157.628906 185.898438 157.632812 186.097656 157.601562 C 186.300781 157.566406 186.488281 157.496094 186.660156 157.390625 C 186.832031 157.28125 186.980469 157.144531 187.097656 156.980469 C 187.21875 156.8125 187.300781 156.632812 187.347656 156.433594 C 187.394531 156.234375 187.398438 156.035156 187.367188 155.832031 C 187.335938 155.632812 187.265625 155.445312 187.15625 155.273438 C 187.050781 155.097656 186.914062 154.953125 186.75 154.832031 C 159.851562 135.527344 134.152344 187.449219 185.386719 203.671875 C 185.695312 203.769531 186.007812 203.769531 186.316406 203.671875 C 232.714844 188.980469 216.117188 144.746094 192.210938 151.273438 Z M 192.210938 151.273438 " fill-opacity="1" fill-rule="nonzero"/><path fill="#ffffff" d="M 191.425781 166.632812 C 191.425781 166.273438 191.394531 165.921875 191.328125 165.570312 C 191.261719 165.21875 191.164062 164.878906 191.035156 164.546875 C 190.90625 164.214844 190.75 163.894531 190.5625 163.59375 C 190.371094 163.289062 190.160156 163.007812 189.917969 162.742188 C 189.675781 162.480469 189.414062 162.242188 189.128906 162.027344 C 188.84375 161.8125 188.542969 161.625 188.222656 161.464844 C 187.902344 161.308594 187.574219 161.179688 187.230469 161.082031 C 186.886719 160.988281 186.535156 160.921875 186.183594 160.890625 C 185.828125 160.859375 185.472656 160.859375 185.117188 160.890625 C 184.761719 160.925781 184.414062 160.992188 184.070312 161.089844 C 183.726562 161.1875 183.394531 161.316406 183.078125 161.476562 C 182.757812 161.636719 182.457031 161.824219 182.171875 162.042969 C 181.890625 162.257812 181.628906 162.496094 181.390625 162.761719 C 181.148438 163.027344 180.9375 163.3125 180.75 163.613281 C 180.5625 163.917969 180.40625 164.238281 180.277344 164.570312 C 180.152344 164.902344 180.054688 165.246094 179.992188 165.597656 C 179.929688 165.945312 179.898438 166.300781 179.898438 166.65625 C 179.898438 167.015625 179.933594 167.367188 180 167.71875 C 180.070312 168.066406 180.167969 168.410156 180.296875 168.742188 C 180.429688 169.074219 180.589844 169.390625 180.777344 169.691406 C 180.96875 169.992188 181.183594 170.277344 181.425781 170.539062 C 181.667969 170.800781 181.929688 171.039062 182.214844 171.25 C 182.503906 171.464844 182.804688 171.648438 183.125 171.804688 C 183.445312 171.964844 183.777344 172.089844 184.121094 172.183594 L 184.121094 180.320312 C 184.121094 180.679688 184.234375 181.003906 184.460938 181.285156 C 184.6875 181.566406 184.976562 181.746094 185.328125 181.824219 L 191.789062 183.265625 L 193.6875 191.1875 C 193.738281 191.390625 193.820312 191.570312 193.941406 191.738281 C 194.066406 191.90625 194.214844 192.042969 194.390625 192.148438 C 194.566406 192.253906 194.757812 192.324219 194.960938 192.351562 C 195.164062 192.382812 195.367188 192.375 195.566406 192.324219 L 198.445312 191.59375 C 198.640625 191.542969 198.824219 191.457031 198.988281 191.335938 C 199.152344 191.210938 199.285156 191.0625 199.390625 190.886719 C 199.492188 190.710938 199.5625 190.523438 199.589844 190.320312 C 199.621094 190.121094 199.609375 189.917969 199.558594 189.722656 C 199.507812 189.523438 199.421875 189.34375 199.300781 189.179688 C 199.179688 189.015625 199.03125 188.882812 198.855469 188.777344 C 198.679688 188.671875 198.488281 188.605469 198.289062 188.574219 C 198.085938 188.546875 197.886719 188.554688 197.6875 188.605469 L 196.320312 188.953125 L 194.5625 181.613281 C 194.496094 181.328125 194.355469 181.082031 194.144531 180.875 C 193.9375 180.667969 193.6875 180.53125 193.398438 180.46875 L 187.203125 179.085938 L 187.203125 176.644531 L 194.839844 176.644531 C 195.042969 176.644531 195.238281 176.605469 195.429688 176.527344 C 195.617188 176.449219 195.785156 176.335938 195.929688 176.191406 C 196.074219 176.046875 196.183594 175.882812 196.261719 175.691406 C 196.339844 175.503906 196.378906 175.308594 196.378906 175.101562 C 196.378906 174.898438 196.339844 174.703125 196.261719 174.515625 C 196.183594 174.324219 196.074219 174.160156 195.929688 174.015625 C 195.785156 173.871094 195.617188 173.757812 195.429688 173.679688 C 195.238281 173.601562 195.042969 173.5625 194.839844 173.5625 L 187.203125 173.5625 L 187.203125 172.183594 C 187.808594 172.015625 188.375 171.753906 188.894531 171.402344 C 189.414062 171.046875 189.867188 170.621094 190.25 170.117188 C 190.628906 169.617188 190.921875 169.066406 191.121094 168.472656 C 191.324219 167.875 191.425781 167.261719 191.425781 166.632812 Z M 182.980469 166.632812 C 182.980469 166.277344 183.046875 165.933594 183.183594 165.605469 C 183.320312 165.277344 183.511719 164.984375 183.765625 164.734375 C 184.015625 164.480469 184.304688 164.289062 184.636719 164.152344 C 184.964844 164.015625 185.304688 163.949219 185.660156 163.949219 C 186.019531 163.949219 186.359375 164.015625 186.6875 164.152344 C 187.019531 164.289062 187.308594 164.480469 187.558594 164.734375 C 187.8125 164.984375 188.003906 165.277344 188.140625 165.605469 C 188.277344 165.933594 188.34375 166.277344 188.34375 166.632812 C 188.34375 166.988281 188.277344 167.328125 188.140625 167.65625 C 188.003906 167.988281 187.8125 168.277344 187.558594 168.527344 C 187.308594 168.78125 187.019531 168.972656 186.6875 169.109375 C 186.359375 169.246094 186.019531 169.3125 185.664062 169.3125 C 185.304688 169.3125 184.964844 169.246094 184.636719 169.109375 C 184.308594 168.972656 184.015625 168.777344 183.765625 168.527344 C 183.515625 168.277344 183.320312 167.984375 183.183594 167.65625 C 183.046875 167.328125 182.980469 166.988281 182.980469 166.632812 Z M 182.980469 166.632812 " fill-opacity="1" fill-rule="nonzero"/><path fill="#ffffff" d="M 180.585938 176.78125 C 180.785156 176.738281 180.96875 176.660156 181.140625 176.546875 C 181.308594 176.433594 181.449219 176.289062 181.5625 176.121094 C 181.671875 175.949219 181.75 175.765625 181.789062 175.5625 C 181.828125 175.363281 181.824219 175.164062 181.785156 174.964844 C 181.742188 174.761719 181.667969 174.578125 181.550781 174.410156 C 181.4375 174.242188 181.296875 174.097656 181.125 173.988281 C 180.953125 173.875 180.769531 173.796875 180.570312 173.757812 C 180.367188 173.71875 180.167969 173.722656 179.96875 173.761719 C 179.570312 173.84375 179.179688 173.949219 178.796875 174.078125 C 178.410156 174.210938 178.039062 174.363281 177.671875 174.539062 C 177.308594 174.71875 176.953125 174.914062 176.613281 175.136719 C 176.273438 175.355469 175.945312 175.597656 175.636719 175.859375 C 175.324219 176.117188 175.03125 176.398438 174.753906 176.695312 C 174.480469 176.992188 174.222656 177.304688 173.984375 177.632812 C 173.75 177.964844 173.53125 178.304688 173.335938 178.660156 C 173.140625 179.019531 172.96875 179.382812 172.820312 179.761719 C 172.671875 180.140625 172.546875 180.523438 172.445312 180.917969 C 172.34375 181.308594 172.265625 181.707031 172.214844 182.109375 C 172.160156 182.511719 172.132812 182.914062 172.132812 183.320312 C 172.128906 183.726562 172.152344 184.132812 172.199219 184.535156 C 172.246094 184.9375 172.320312 185.335938 172.417969 185.730469 C 172.515625 186.125 172.636719 186.507812 172.78125 186.886719 C 172.925781 187.265625 173.09375 187.636719 173.285156 187.992188 C 173.476562 188.351562 173.6875 188.695312 173.921875 189.027344 C 174.15625 189.359375 174.410156 189.675781 174.683594 189.976562 C 174.953125 190.277344 175.246094 190.558594 175.554688 190.824219 C 175.859375 191.085938 176.183594 191.332031 176.523438 191.554688 C 176.859375 191.78125 177.210938 191.980469 177.574219 192.164062 C 177.9375 192.34375 178.3125 192.5 178.695312 192.636719 C 179.078125 192.769531 179.464844 192.878906 179.863281 192.964844 C 180.257812 193.050781 180.660156 193.113281 181.0625 193.148438 C 181.46875 193.1875 181.871094 193.199219 182.277344 193.183594 C 182.683594 193.171875 183.085938 193.132812 183.488281 193.066406 C 183.886719 193.003906 184.28125 192.917969 184.671875 192.804688 C 185.0625 192.691406 185.445312 192.554688 185.816406 192.394531 C 186.1875 192.234375 186.550781 192.050781 186.902344 191.847656 C 187.25 191.640625 187.585938 191.417969 187.910156 191.167969 C 188.230469 190.921875 188.539062 190.65625 188.828125 190.375 C 189.117188 190.089844 189.386719 189.789062 189.640625 189.46875 C 189.890625 189.152344 190.121094 188.820312 190.332031 188.472656 C 190.4375 188.296875 190.507812 188.109375 190.539062 187.90625 C 190.570312 187.707031 190.5625 187.507812 190.511719 187.308594 C 190.464844 187.109375 190.382812 186.925781 190.261719 186.761719 C 190.140625 186.597656 189.992188 186.460938 189.816406 186.355469 C 189.644531 186.25 189.457031 186.179688 189.253906 186.148438 C 189.050781 186.117188 188.851562 186.125 188.652344 186.175781 C 188.453125 186.222656 188.273438 186.308594 188.109375 186.429688 C 187.941406 186.546875 187.808594 186.695312 187.699219 186.871094 C 187.554688 187.109375 187.398438 187.335938 187.226562 187.554688 C 187.050781 187.773438 186.867188 187.980469 186.667969 188.175781 C 186.46875 188.371094 186.261719 188.550781 186.039062 188.722656 C 185.816406 188.890625 185.585938 189.046875 185.347656 189.1875 C 185.105469 189.328125 184.859375 189.453125 184.601562 189.5625 C 184.347656 189.671875 184.085938 189.765625 183.820312 189.84375 C 183.550781 189.921875 183.28125 189.980469 183.003906 190.023438 C 182.730469 190.070312 182.453125 190.097656 182.175781 190.105469 C 181.898438 190.113281 181.621094 190.105469 181.34375 190.082031 C 181.066406 190.058594 180.789062 190.015625 180.519531 189.957031 C 180.246094 189.898438 179.980469 189.820312 179.714844 189.730469 C 179.453125 189.636719 179.199219 189.53125 178.949219 189.40625 C 178.699219 189.28125 178.457031 189.144531 178.226562 188.988281 C 177.996094 188.835938 177.773438 188.667969 177.5625 188.488281 C 177.351562 188.304688 177.152344 188.113281 176.964844 187.90625 C 176.777344 187.699219 176.601562 187.484375 176.441406 187.257812 C 176.28125 187.027344 176.136719 186.792969 176.003906 186.546875 C 175.875 186.300781 175.757812 186.046875 175.660156 185.789062 C 175.558594 185.527344 175.476562 185.261719 175.410156 184.992188 C 175.34375 184.722656 175.292969 184.449219 175.257812 184.171875 C 175.226562 183.898438 175.210938 183.621094 175.210938 183.339844 C 175.214844 183.0625 175.230469 182.785156 175.269531 182.507812 C 175.304688 182.234375 175.355469 181.960938 175.425781 181.691406 C 175.496094 181.421875 175.582031 181.15625 175.683594 180.898438 C 175.785156 180.640625 175.90625 180.386719 176.039062 180.144531 C 176.171875 179.898438 176.320312 179.664062 176.484375 179.4375 C 176.644531 179.214844 176.820312 179 177.011719 178.792969 C 177.199219 178.589844 177.402344 178.398438 177.613281 178.21875 C 177.828125 178.039062 178.050781 177.875 178.285156 177.722656 C 178.519531 177.574219 178.761719 177.4375 179.011719 177.316406 C 179.261719 177.195312 179.519531 177.089844 179.78125 177 C 180.046875 176.910156 180.3125 176.835938 180.585938 176.78125 Z M 180.585938 176.78125 " fill-opacity="1" fill-rule="nonzero"/></svg>